<svg xmlns="http://www.w3.org/2000/svg" viewBox="0 0 965.6 926.47"><defs><style>.cls-1{fill:#ad8c32;}.cls-2{fill:#31af31;}.cls-3{fill:#c64747;}.cls-4{fill:#7e7e7f;}.cls-5{fill:none;stroke:#d6ba61;stroke-miterlimit:10;stroke-width:85px;}</style></defs><g id="Layer_2" data-name="Layer 2"><g id="Layer_1-2" data-name="Layer 1"><path class="cls-1" d="M345,884H315.41c-10.19,0-10.87-19.4-10.87-29.59-1.72-16.7,3.07-35.61,1.35-52.3-.81-7.82-8.13-13.42-8.93-21.23a18.86,18.86,0,0,1,5.4-13.05,18.4,18.4,0,0,1,13.05-5.4H345a18.46,18.46,0,0,1,18.46,18.45c0,.09-2.21,22-2.27,22.1-11.07,8.07-6.09,59.31-6.15,59.92C357.36,871.46,355.42,879.32,345,884Z"/><path class="cls-2" d="M307.46,623.24c23.33,57.31,15,114.86-18.65,128.55s-79.8-21.67-103.13-79S133.4,466.29,167,452.6,284.14,565.93,307.46,623.24Z"/><path class="cls-2" d="M469.5,695C438.19,743,390,766.92,361.9,748.55s-25.54-72.11,5.76-120S497.2,480,525.32,498.36,500.8,647.12,469.5,695Z"/><rect class="cls-1" x="593.14" y="301.55" width="151.88" height="47.55" rx="12.03" transform="translate(729.18 1066.86) rotate(-120.56)"/><rect class="cls-3" x="679.54" y="367.78" width="68.65" height="66.8" rx="12.03" transform="translate(731.44 1219.86) rotate(-120.56)"/><polygon class="cls-4" points="605.73 218.06 592.53 370.52 745.62 280.12 605.73 218.06"/><polygon class="cls-4" points="592.94 370.16 624.07 249.22 745.15 280.39 756.25 237.29 635.17 206.12 635.17 206.12 592.07 195.03 549.84 359.06 592.94 370.16"/><rect class="cls-5" x="42.5" y="42.5" width="880.6" height="841.47" rx="73.75"/></g></g></svg>