<?xml version="1.0" encoding="utf-8"?>
<!-- Generator: Adobe Illustrator 25.2.1, SVG Export Plug-In . SVG Version: 6.00 Build 0)  -->
<svg version="1.1" id="Layer_1" xmlns="http://www.w3.org/2000/svg" xmlns:xlink="http://www.w3.org/1999/xlink" x="0px" y="0px"
	 viewBox="0 0 583 399.6" style="enable-background:new 0 0 583 399.6;" xml:space="preserve">
<style type="text/css">
	.st0{fill:#8C6239;}
	.st1{fill:none;stroke:#8C6239;stroke-width:9.979;stroke-miterlimit:10;}
	.st2{fill:#31AF31;}
	.st3{fill:none;}
	.st4{fill:#5C5962;}
</style>
<g id="bonsai">
	<g id="bonsai-tree">
		<g id="bonsai-links">
			<g id="bonsai-link-curly">
				<path class="st0" d="M155.8,219.9c0.2,2.2,0.5,4.3,1,6.4c0.6,2.2,1.3,4.4,2.1,6.5c1.8,4.3,4.1,8.5,6.9,12.2
					c2.8,3.9,6,7.5,9.6,10.7l2.7,2.4c0.9,0.8,1.9,1.5,2.9,2.3c2,1.5,4,2.9,6.1,4.2c4.2,2.7,8.6,5,13.2,7.1c4.6,2.1,9.4,3.9,14.2,5.3
					c4.9,1.5,9.9,2.7,15,3.7c2.6,0.4,5.1,0.9,7.7,1.2l3.9,0.5l3.9,0.4c2.6,0.3,5.2,0.3,7.9,0.5l4.2,0.3c0.7,0.1,1.4,0.1,2.1,0.2
					l2.1,0.3c5.7,1,11.1,2.9,16.2,5.6c5,2.7,9.5,6.3,13.3,10.4c3.8,4.2,6.9,8.9,9.2,14.1c2.2,5.1,3.5,10.7,3.6,16.3
					c0.2,5.5-0.4,11-1.9,16.3c-1.4,5.3-3.6,10.3-6.4,15c-2.7,4.7-6.1,8.9-9.9,12.7l-0.1-0.1c3.6-4,6.6-8.4,9.1-13.2
					c2.5-4.7,4.3-9.7,5.4-14.9c1.1-5.2,1.3-10.4,0.8-15.7c-0.5-5.2-1.9-10.2-4.3-14.8c-4.8-9.1-12.4-16.3-21.7-20.6
					c-4.5-2.1-9.3-3.4-14.3-3.9l-1.8-0.2c-0.6-0.1-1.2,0-1.9,0c-1.3,0-2.4,0-3.9,0.1c-2.7,0-5.4,0.2-8.1,0.1
					c-5.5,0.1-10.9-0.2-16.5-0.6c-5.5-0.5-11-1.2-16.5-2.2c-5.5-1.1-11-2.6-16.3-4.4c-5.4-1.9-10.6-4.2-15.7-7
					c-5.1-2.8-9.9-6.1-14.4-9.9c-4.5-3.9-8.6-8.2-12.1-13c-0.9-1.2-1.7-2.5-2.5-3.7c-0.8-1.2-1.6-2.6-2.3-3.9
					c-0.8-1.3-1.4-2.7-2-4.1s-1.3-2.8-1.8-4.2l-0.8-2.2c-0.2-0.7-0.4-1.5-0.7-2.2c-0.5-1.5-0.8-3-1.1-4.5c-0.6-3.2-0.8-6.4-0.8-9.6
					L155.8,219.9z"/>
			</g>
			<g id="bonsai-link-straight">
				<line class="st1" x1="121.1" y1="64.9" x2="136.6" y2="37.2"/>
				<line class="st1" x1="151.9" y1="37.2" x2="166.9" y2="64.9"/>
				<line class="st1" x1="182.2" y1="64.9" x2="197.8" y2="37.2"/>
				<line class="st1" x1="213.1" y1="37.2" x2="228" y2="64.9"/>
				<line class="st1" x1="243.3" y1="64.9" x2="259.1" y2="37.2"/>
				<line class="st1" x1="274.8" y1="37.2" x2="290.5" y2="64.9"/>
				<line class="st1" x1="306.1" y1="64.9" x2="321.4" y2="37.2"/>
				<line class="st1" x1="337.4" y1="37.2" x2="353.9" y2="64.9"/>
				<line class="st1" x1="317.1" y1="182.5" x2="332.6" y2="154.7"/>
				<line class="st1" x1="347.9" y1="154.7" x2="362.9" y2="182.5"/>
				<line class="st1" x1="378.2" y1="182.5" x2="393.9" y2="154.7"/>
				<line class="st1" x1="409.1" y1="154.7" x2="424" y2="182.5"/>
				<line class="st1" x1="439.3" y1="182.5" x2="455.1" y2="154.7"/>
				<line class="st1" x1="470.9" y1="154.7" x2="486.6" y2="182.5"/>
				<line class="st1" x1="502.1" y1="182.5" x2="517.4" y2="154.7"/>
				<line class="st1" x1="533.4" y1="154.7" x2="549.9" y2="182.5"/>
				<line class="st1" x1="63.4" y1="158.9" x2="78.4" y2="186.7"/>
				<line class="st1" x1="154.5" y1="186.7" x2="169.7" y2="158.9"/>
				<line class="st1" x1="185.3" y1="158.9" x2="201.5" y2="186.7"/>
				<line class="st1" x1="139.5" y1="186.7" x2="124.6" y2="158.9"/>
				<line class="st1" x1="93.7" y1="186.7" x2="109.4" y2="158.9"/>
				<line class="st1" x1="32.6" y1="186.7" x2="48.1" y2="158.9"/>
			</g>
		</g>
		<g id="bonsai-nodes">
			<g id="bonsai-nodes-fill">
				<ellipse class="st2" cx="146.9" cy="200.6" rx="23.4" ry="23.5"/>
				<ellipse class="st2" cx="209.9" cy="200.6" rx="23.4" ry="23.5"/>
				<ellipse class="st2" cx="117.2" cy="145.1" rx="23.4" ry="23.5"/>
				<ellipse class="st2" cx="178.5" cy="145.1" rx="23.4" ry="23.5"/>
				<ellipse class="st2" cx="85.9" cy="200.6" rx="23.4" ry="23.5"/>
				<ellipse class="st2" cx="55.9" cy="145.1" rx="23.4" ry="23.5"/>
				<ellipse class="st2" cx="24.9" cy="200.6" rx="23.4" ry="23.5"/>
				<ellipse class="st2" cx="235.4" cy="78.8" rx="23.4" ry="23.5"/>
				<ellipse class="st2" cx="298.4" cy="78.8" rx="23.4" ry="23.5"/>
				<ellipse class="st2" cx="205.7" cy="23.3" rx="23.4" ry="23.5"/>
				<ellipse class="st2" cx="267" cy="23.3" rx="23.4" ry="23.5"/>
				<ellipse class="st2" cx="174.4" cy="78.8" rx="23.4" ry="23.5"/>
				<ellipse class="st2" cx="144.3" cy="23.3" rx="23.4" ry="23.5"/>
				<ellipse class="st2" cx="113.3" cy="78.8" rx="23.4" ry="23.5"/>
				<ellipse class="st2" cx="362.1" cy="78.8" rx="23.4" ry="23.5"/>
				<ellipse class="st2" cx="329.1" cy="23.3" rx="23.4" ry="23.5"/>
				<ellipse class="st2" cx="431.4" cy="196.3" rx="23.4" ry="23.5"/>
				<ellipse class="st2" cx="494.4" cy="196.3" rx="23.4" ry="23.5"/>
				<ellipse class="st2" cx="401.7" cy="140.8" rx="23.4" ry="23.5"/>
				<ellipse class="st2" cx="463" cy="140.8" rx="23.4" ry="23.5"/>
				<ellipse class="st2" cx="370.4" cy="196.3" rx="23.4" ry="23.5"/>
				<ellipse class="st2" cx="340.4" cy="140.8" rx="23.4" ry="23.5"/>
				<ellipse class="st2" cx="309.4" cy="196.3" rx="23.4" ry="23.5"/>
				<ellipse class="st2" cx="558.1" cy="196.3" rx="23.4" ry="23.5"/>
				<ellipse class="st2" cx="525.1" cy="140.8" rx="23.4" ry="23.5"/>
			</g>
			<g id="bonsai-nodes-border">
				<path class="st3" d="M437.7,173.7c-12.4-3.5-25.3,3.9-28.8,16.4s3.8,25.5,16.3,28.9s25.3-3.9,28.8-16.4c0,0,0,0,0,0
					C457.4,190.1,450.1,177.1,437.7,173.7z M445.6,200.5c-2.2,7.9-10.4,12.6-18.3,10.4c-7.9-2.2-12.5-10.4-10.3-18.4
					c2.2-7.9,10.4-12.6,18.3-10.4C443.2,184.3,447.8,192.5,445.6,200.5C445.6,200.5,445.6,200.5,445.6,200.5L445.6,200.5z"/>
				<path class="st3" d="M500.7,173.7c-12.4-3.5-25.3,3.9-28.8,16.4c-3.4,12.5,3.8,25.5,16.3,28.9c12.4,3.5,25.3-3.9,28.8-16.4
					c0,0,0,0,0,0C520.4,190.1,513.1,177.1,500.7,173.7z M508.6,200.5c-2.2,7.9-10.4,12.6-18.3,10.4c-7.9-2.2-12.5-10.4-10.3-18.4
					c2.2-7.9,10.4-12.6,18.3-10.4C506.2,184.3,510.8,192.5,508.6,200.5C508.6,200.5,508.6,200.5,508.6,200.5L508.6,200.5z"/>
				<path class="st3" d="M424.2,147.1c3.4-12.5-3.8-25.5-16.3-28.9c-12.4-3.5-25.3,3.9-28.8,16.4c-3.4,12.5,3.8,25.5,16.3,28.9
					c0,0,0,0,0,0C407.9,167,420.8,159.6,424.2,147.1C424.2,147.1,424.2,147.1,424.2,147.1z M416,144.8c-2.2,7.9-10.4,12.6-18.3,10.4
					c-7.9-2.2-12.5-10.4-10.3-18.4c2.2-7.9,10.4-12.6,18.3-10.4C413.6,128.6,418.2,136.8,416,144.8C416,144.8,416,144.8,416,144.8z"
					/>
				<path class="st3" d="M485.5,147.1c3.4-12.5-3.8-25.5-16.3-28.9s-25.3,3.9-28.8,16.4c-3.4,12.5,3.8,25.5,16.3,28.9
					C469.2,167,482.1,159.6,485.5,147.1C485.5,147.1,485.5,147.1,485.5,147.1z M477.3,144.8c-2.2,7.9-10.4,12.6-18.3,10.4
					s-12.5-10.4-10.3-18.4c2.2-7.9,10.4-12.6,18.3-10.4C474.9,128.6,479.5,136.9,477.3,144.8C477.3,144.8,477.3,144.8,477.3,144.8
					L477.3,144.8z"/>
				<path class="st3" d="M376.6,173.7c-12.4-3.5-25.3,3.9-28.8,16.4c-3.4,12.5,3.8,25.5,16.3,28.9s25.3-3.9,28.8-16.4c0,0,0,0,0,0
					C396.4,190.1,389.1,177.1,376.6,173.7z M384.8,200.5c-2.2,7.9-10.4,12.6-18.3,10.4c-7.9-2.2-12.5-10.4-10.3-18.4
					c2.2-7.9,10.4-12.6,18.3-10.4C382.3,184.3,387,192.5,384.8,200.5C384.8,200.5,384.8,200.5,384.8,200.5L384.8,200.5z"/>
				<path class="st3" d="M362.9,147.1c3.4-12.5-3.8-25.5-16.3-28.9c-12.4-3.5-25.3,3.9-28.8,16.4c-3.4,12.5,3.8,25.5,16.3,28.9
					c0,0,0,0,0,0C346.6,167,359.4,159.6,362.9,147.1C362.9,147.1,362.9,147.1,362.9,147.1z M354.7,144.8
					c-2.2,7.9-10.4,12.6-18.3,10.4c-7.9-2.2-12.5-10.4-10.3-18.4c2.2-7.9,10.4-12.6,18.2-10.4C352.2,128.6,356.9,136.9,354.7,144.8
					C354.7,144.8,354.7,144.8,354.7,144.8z"/>
				<path class="st3" d="M315.6,173.7c-12.4-3.5-25.3,3.9-28.8,16.4s3.8,25.5,16.3,28.9s25.3-3.9,28.8-16.4c0,0,0,0,0,0
					C335.3,190.1,328,177.1,315.6,173.7z M323.7,200.5c-2.2,7.9-10.4,12.6-18.3,10.4s-12.5-10.4-10.3-18.4
					c2.2-7.9,10.4-12.6,18.3-10.4C321.2,184.3,325.9,192.5,323.7,200.5C323.7,200.5,323.7,200.5,323.7,200.5L323.7,200.5z"/>
				<path class="st3" d="M564.4,173.7c-12.4-3.5-25.3,3.9-28.8,16.4s3.8,25.5,16.3,28.9c12.4,3.5,25.3-3.9,28.8-16.4c0,0,0,0,0,0
					C584.1,190.1,576.8,177.1,564.4,173.7z M572.4,200.5c-2.2,7.9-10.4,12.6-18.3,10.4c-7.9-2.2-12.5-10.4-10.3-18.4
					c2.2-7.9,10.4-12.6,18.3-10.4C570,184.3,574.6,192.5,572.4,200.5C572.4,200.5,572.4,200.5,572.4,200.5L572.4,200.5z"/>
				<path class="st3" d="M547.7,147.1c3.4-12.5-3.8-25.5-16.3-28.9c-12.4-3.5-25.3,3.9-28.8,16.4c-3.4,12.5,3.8,25.5,16.3,28.9
					c0,0,0,0,0,0C531.3,167,544.2,159.6,547.7,147.1C547.7,147.1,547.7,147.1,547.7,147.1z M539.4,144.8
					c-2.2,7.9-10.4,12.6-18.3,10.4c-7.9-2.2-12.5-10.4-10.3-18.4c2.2-7.9,10.4-12.6,18.3-10.4C537,128.7,541.6,136.9,539.4,144.8
					L539.4,144.8z"/>
				<path class="st3" d="M241.6,56.2c-12.4-3.5-25.3,3.9-28.8,16.4s3.8,25.5,16.3,28.9c12.4,3.5,25.3-3.9,28.8-16.4c0,0,0,0,0,0
					C261.3,72.6,254.1,59.6,241.6,56.2z M249.6,82.9c-2.2,7.9-10.4,12.6-18.3,10.4c-7.9-2.2-12.5-10.4-10.3-18.4
					c2.2-7.9,10.4-12.6,18.3-10.4c0,0,0,0,0,0C247.2,66.8,251.8,75,249.6,82.9L249.6,82.9z"/>
				<path class="st3" d="M304.6,56.2c-12.4-3.5-25.3,3.9-28.8,16.4s3.8,25.5,16.3,28.9c12.4,3.5,25.3-3.9,28.8-16.4c0,0,0,0,0,0
					C324.3,72.6,317.1,59.6,304.6,56.2z M312.6,82.9c-2.2,7.9-10.4,12.6-18.3,10.4c-7.9-2.2-12.5-10.4-10.3-18.4
					c2.2-7.9,10.4-12.6,18.3-10.4C310.1,66.8,314.8,75,312.6,82.9C312.6,82.9,312.6,82.9,312.6,82.9L312.6,82.9z"/>
				<path class="st3" d="M228.2,29.6c3.4-12.5-3.8-25.5-16.3-28.9S186.6,4.5,183.1,17c-3.4,12.5,3.8,25.5,16.3,28.9
					C211.8,49.4,224.7,42.1,228.2,29.6C228.2,29.6,228.2,29.6,228.2,29.6z M220,27.3c-2.2,7.9-10.4,12.6-18.3,10.4
					c-7.9-2.2-12.5-10.4-10.3-18.4c2.2-7.9,10.4-12.6,18.3-10.4C217.5,11.1,222.1,19.3,220,27.3z"/>
				<path class="st3" d="M289.5,29.6c3.4-12.5-3.8-25.5-16.3-28.9c-12.4-3.5-25.3,3.9-28.8,16.4c-3.4,12.5,3.8,25.5,16.3,28.9
					C273.2,49.4,286,42.1,289.5,29.6C289.5,29.6,289.5,29.6,289.5,29.6z M281.3,27.3c-2.2,7.9-10.4,12.6-18.3,10.4
					c-7.9-2.2-12.5-10.4-10.3-18.4c2.2-7.9,10.4-12.6,18.3-10.4C278.8,11.1,283.4,19.3,281.3,27.3C281.3,27.3,281.3,27.3,281.3,27.3
					z"/>
				<path class="st3" d="M180.6,56.2c-12.4-3.5-25.3,3.9-28.8,16.4c-3.4,12.5,3.8,25.5,16.3,28.9c12.4,3.5,25.3-3.9,28.8-16.4
					c0,0,0,0,0,0C200.3,72.6,193,59.6,180.6,56.2z M188.7,82.9c-2.2,7.9-10.4,12.6-18.3,10.4c-7.9-2.2-12.5-10.4-10.3-18.4
					c2.2-7.9,10.4-12.6,18.3-10.4c0,0,0,0,0,0C186.3,66.8,190.9,75,188.7,82.9C188.7,82.9,188.7,82.9,188.7,82.9L188.7,82.9z"/>
				<path class="st3" d="M166.9,29.6c3.4-12.5-3.8-25.5-16.3-28.9c-12.4-3.5-25.3,3.9-28.8,16.4c-3.4,12.5,3.8,25.5,16.3,28.9
					c0,0,0,0,0,0C150.5,49.4,163.4,42.1,166.9,29.6C166.8,29.6,166.8,29.6,166.9,29.6z M158.6,27.3c-2.2,7.9-10.4,12.6-18.3,10.4
					S127.9,27.3,130,19.3c2.2-7.9,10.4-12.6,18.3-10.4C156.2,11.1,160.8,19.3,158.6,27.3C158.6,27.3,158.6,27.3,158.6,27.3z"/>
				<path class="st3" d="M119.6,56.2c-12.4-3.5-25.3,3.8-28.8,16.3C87.3,85,94.6,98,107,101.5s25.3-3.8,28.8-16.3c0,0,0,0,0,0
					C139.3,72.6,132,59.6,119.6,56.2z M127.6,82.9c-2.2,7.9-10.4,12.6-18.3,10.4C101.5,91.1,96.9,82.9,99,75
					c2.2-7.9,10.4-12.6,18.3-10.4C125.2,66.8,129.8,75,127.6,82.9C127.6,82.9,127.6,82.9,127.6,82.9z"/>
				<path class="st3" d="M368.3,56.2c-12.4-3.5-25.3,3.9-28.8,16.4s3.8,25.5,16.3,28.9c12.4,3.5,25.3-3.9,28.8-16.4c0,0,0,0,0,0
					C388.1,72.6,380.8,59.6,368.3,56.2z M376.4,82.9c-2.2,7.9-10.4,12.6-18.3,10.4c-7.9-2.2-12.5-10.4-10.3-18.4
					c2.2-7.9,10.4-12.6,18.3-10.4C374,66.8,378.6,75,376.4,82.9C376.4,82.9,376.4,82.9,376.4,82.9z"/>
				<path class="st3" d="M351.6,29.6c3.4-12.5-3.9-25.5-16.3-28.9C322.9-2.8,310,4.5,306.6,17c-3.4,12.5,3.8,25.5,16.3,28.9
					C335.3,49.4,348.2,42.1,351.6,29.6C351.6,29.6,351.6,29.6,351.6,29.6z M343.4,27.3c-2.2,7.9-10.4,12.6-18.3,10.4
					c-7.9-2.2-12.5-10.4-10.3-18.4C317,11.4,325.1,6.7,333,8.9C340.9,11.1,345.6,19.3,343.4,27.3C343.4,27.3,343.4,27.3,343.4,27.3
					L343.4,27.3z"/>
				<path class="st3" d="M153.2,177.9c-12.4-3.5-25.3,3.9-28.8,16.4c-3.4,12.5,3.8,25.5,16.3,28.9c12.4,3.5,25.3-3.9,28.8-16.4
					c0,0,0,0,0,0C173,194.3,165.7,181.4,153.2,177.9C153.3,177.9,153.2,177.9,153.2,177.9z M161.2,204.7
					c-2.2,7.9-10.3,12.6-18.2,10.4c-7.9-2.2-12.5-10.4-10.3-18.4c2.2-7.9,10.3-12.6,18.2-10.4c0,0,0,0,0,0
					C158.7,188.5,163.4,196.7,161.2,204.7L161.2,204.7z"/>
				<path class="st3" d="M216.2,177.9c-12.4-3.5-25.3,3.9-28.8,16.4c-3.4,12.5,3.8,25.5,16.3,28.9c12.4,3.5,25.3-3.9,28.8-16.4
					c0,0,0,0,0,0C236,194.3,228.7,181.4,216.2,177.9C216.3,177.9,216.2,177.9,216.2,177.9z M224.2,204.7
					c-2.2,7.9-10.4,12.6-18.2,10.4c-7.9-2.2-12.5-10.4-10.3-18.4c2.2-7.9,10.4-12.6,18.2-10.4c0,0,0,0,0,0
					C221.8,188.5,226.4,196.7,224.2,204.7C224.2,204.7,224.2,204.7,224.2,204.7L224.2,204.7z"/>
				<path class="st3" d="M139.8,151.3c3.4-12.5-3.8-25.5-16.3-28.9s-25.3,3.9-28.8,16.4c-3.4,12.5,3.8,25.5,16.3,28.9c0,0,0,0,0,0
					C123.5,171.2,136.3,163.9,139.8,151.3z M131.6,149c-2.2,8-10.4,12.6-18.3,10.4c-7.9-2.2-12.5-10.4-10.4-18.4
					c2.2-8,10.4-12.6,18.3-10.4c0,0,0,0,0,0C129.1,132.9,133.8,141.1,131.6,149C131.6,149,131.6,149,131.6,149L131.6,149z"/>
				<path class="st3" d="M201.1,151.3c3.4-12.5-3.8-25.5-16.3-28.9c-12.4-3.5-25.3,3.9-28.8,16.4c-3.4,12.5,3.8,25.5,16.3,28.9
					c0,0,0,0,0,0C184.8,171.2,197.6,163.9,201.1,151.3z M192.9,149c-2.2,7.9-10.4,12.6-18.3,10.4c-7.9-2.2-12.5-10.4-10.3-18.4
					s10.4-12.6,18.3-10.4c0,0,0,0,0,0C190.4,132.9,195.1,141.1,192.9,149z"/>
				<path class="st3" d="M92.2,177.9c-12.4-3.5-25.3,3.9-28.8,16.4s3.8,25.5,16.3,28.9s25.3-3.9,28.8-16.4c0,0,0,0,0,0
					C111.9,194.3,104.6,181.4,92.2,177.9C92.2,177.9,92.2,177.9,92.2,177.9z M100.3,204.7c-2.2,7.9-10.4,12.6-18.3,10.4
					c-7.9-2.2-12.5-10.4-10.3-18.4s10.4-12.6,18.3-10.4c0,0,0,0,0,0C97.9,188.5,102.5,196.8,100.3,204.7z"/>
				<path class="st3" d="M78.5,151.3c3.4-12.5-3.8-25.5-16.3-28.9s-25.3,3.9-28.8,16.4c-3.4,12.5,3.8,25.5,16.3,28.9c0,0,0,0,0,0
					C62.2,171.2,75,163.9,78.5,151.3z M70.2,149c-2.2,7.9-10.4,12.6-18.3,10.4c-7.9-2.2-12.5-10.4-10.3-18.4
					c2.2-7.9,10.4-12.6,18.3-10.4C67.8,132.9,72.4,141.1,70.2,149C70.2,149,70.2,149,70.2,149z"/>
				<path class="st3" d="M31.2,177.9c-12.4-3.5-25.3,3.9-28.8,16.4c-3.4,12.5,3.8,25.5,16.3,28.9c12.4,3.5,25.3-3.9,28.8-16.4
					c0,0,0,0,0,0C50.9,194.3,43.6,181.4,31.2,177.9C31.2,177.9,31.2,177.9,31.2,177.9z M39.2,204.7c-2.2,7.9-10.4,12.6-18.2,10.4
					s-12.5-10.4-10.3-18.4c2.2-7.9,10.4-12.6,18.2-10.4c0,0,0,0,0,0C36.8,188.5,41.4,196.7,39.2,204.7z"/>
			</g>
		</g>
	</g>
	<g id="bonsai-txt">
		<g id="wikilinks">
			<path class="st4" d="M190.6,399.8h-47c0-1.5,0.1-7,0.2-16.3c0.1-9.4,0.2-23,0.2-40.8c0-6.9,0-15.9,0-26.9c0-11-0.1-21.9-0.3-32.5
				h47v7.7h-35.3c-0.1,10.7-0.2,20.3-0.2,28.8s0,15.8,0,22.2c0,13.5,0.1,24.2,0.2,32c0.1,7.8,0.2,13.8,0.2,18h35.2L190.6,399.8z"/>
			<path class="st4" d="M259.4,399.8h-47c0-1.5,0.1-7,0.2-16.3c0.1-9.4,0.2-23,0.2-40.8c0-6.9,0-15.9,0-26.9c0-11-0.1-21.9-0.3-32.5
				h47v7.7h-35.3c-0.1,10.7-0.2,20.3-0.2,28.8s0,15.8,0,22.2c0,13.5,0.1,24.2,0.2,32c0.1,7.8,0.2,13.8,0.2,18h35.2L259.4,399.8z"/>
			<path class="st4" d="M359.5,399.8h-47v-7.7h35.2c0-4.6,0.1-11.3,0.2-20s0.2-18.7,0.2-30.1c0-5.8,0-13.5,0-23.1
				c0-9.7-0.1-19-0.2-27.9h-35.3v-7.7h47c-0.2,10.6-0.3,21.5-0.3,32.7s0,20.1,0,26.7c0,12.2,0.1,24.4,0.2,36.6
				C359.5,391.4,359.5,398.3,359.5,399.8z"/>
			<path class="st4" d="M428.3,399.8h-47v-7.7h35.2c0-4.6,0.1-11.3,0.2-20c0.1-8.7,0.2-18.7,0.2-30.1c0-5.8,0-13.5,0-23.1
				c0-9.7-0.1-19-0.2-27.9h-35.3v-7.7h46.9c-0.2,10.6-0.3,21.5-0.3,32.7c0,11.2,0,20.1,0,26.7c0,12.2,0.1,24.4,0.2,36.6
				C428.3,391.4,428.3,398.3,428.3,399.8z"/>
		</g>
		<path id="dot" class="st4" d="M272.2,373.6c0-8.1,5.5-13.9,13.1-13.9s12.9,5.7,12.9,13.9c0,7.9-5,13.9-13.1,13.9
			C277.5,387.5,272.2,381.5,272.2,373.6z"/>
	</g>
</g>
</svg>
