<?xml version="1.0" encoding="utf-8"?>
<!-- Generator: Adobe Illustrator 25.2.1, SVG Export Plug-In . SVG Version: 6.00 Build 0)  -->
<svg version="1.1" id="Layer_1" xmlns="http://www.w3.org/2000/svg" xmlns:xlink="http://www.w3.org/1999/xlink" x="0px" y="0px"
	 viewBox="0 0 16 16" style="enable-background:new 0 0 16 16;" xml:space="preserve">
<style type="text/css">
	.st0{fill-rule:evenodd;clip-rule:evenodd;fill:#C5C5C5;}
</style>
<path class="st0" d="M11.2,3.2l2.1,1.6c0.6,0.5,1,1.2,1.2,1.9c0.1,0.8-0.1,1.6-0.5,2.2L13.9,9c-0.5,0.6-1.2,1-1.9,1.2
	c-0.8,0.1-1.6-0.1-2.2-0.5L9.4,9.4L10,8.7L10.3,9c0.4,0.3,1,0.5,1.5,0.4c0.5-0.1,1-0.4,1.4-0.8l0.1-0.1c0.3-0.4,0.5-1,0.4-1.5
	s-0.4-1-0.8-1.4l-2.1-1.6c-0.4-0.3-1-0.5-1.5-0.4c-0.3,0-0.5,0.1-0.8,0.3C8.2,3.9,8,4.1,7.8,4.3L7.7,4.5C7.4,4.9,7.3,5.4,7.3,5.8
	c0,0.5,0.2,0.9,0.6,1.3L7.4,7.8C6.9,7.4,6.5,6.7,6.5,6C6.4,5.3,6.6,4.6,7,4l0.1-0.1c0.5-0.6,1.2-1,1.9-1.2
	C9.8,2.6,10.6,2.7,11.2,3.2z M14.4,9.9l0.5-0.7c0.5,0.5,0.8,1.2,0.9,1.9c0.1,0.7-0.1,1.4-0.6,2l-0.1,0.1c-0.5,0.6-1.2,1-1.9,1.2
	s-1.6-0.1-2.2-0.5L9,12.3c-0.6-0.5-1-1.2-1.2-1.9C7.7,9.6,7.9,8.8,8.3,8.2L8.4,8c0.5-0.6,1.2-1,1.9-1.2c0.8-0.1,1.6,0.1,2.2,0.5
	l0.3,0.2l-0.5,0.7L12,8.1c-0.4-0.3-1-0.5-1.5-0.4c-0.5,0.1-1,0.4-1.4,0.8L9,8.7c-0.3,0.4-0.5,1-0.4,1.5c0.1,0.5,0.4,1,0.8,1.4
	l2.1,1.6c0.4,0.3,1,0.5,1.5,0.4c0.5-0.1,1-0.4,1.4-0.8l0.1-0.1c0.3-0.4,0.4-0.9,0.4-1.4C15,10.7,14.8,10.3,14.4,9.9z"/>
<path class="st0" d="M0,8.5l5,6.2V2.3L0,8.5z M4.4,4.2v8.7L1,8.5L4.4,4.2z"/>
</svg>
