<?xml version="1.0" encoding="utf-8"?>
<!-- Generator: Adobe Illustrator 25.2.1, SVG Export Plug-In . SVG Version: 6.00 Build 0)  -->
<svg version="1.1" id="Layer_1" xmlns="http://www.w3.org/2000/svg" xmlns:xlink="http://www.w3.org/1999/xlink" x="0px" y="0px"
	 viewBox="0 0 16 16" style="enable-background:new 0 0 16 16;" xml:space="preserve">
<style type="text/css">
	.st0{fill-rule:evenodd;clip-rule:evenodd;fill:#424242;}
</style>
<path class="st0" d="M10.6,2.9l2.1,1.6c0.6,0.5,1,1.2,1.2,1.9C14,7.2,13.8,8,13.4,8.6l-0.1,0.1c-0.5,0.6-1.2,1-1.9,1.2
	C10.5,10,9.7,9.8,9.1,9.3L8.8,9.1l0.5-0.7l0.3,0.2c0.4,0.3,1,0.5,1.5,0.4s1-0.4,1.4-0.8L12.6,8C13,7.6,13.1,7,13,6.5s-0.4-1-0.8-1.4
	L10,3.6C9.6,3.3,9,3.1,8.5,3.2C8.2,3.2,8,3.3,7.7,3.4C7.5,3.6,7.3,3.8,7.1,4L7,4.1C6.8,4.5,6.6,5,6.6,5.5s0.2,0.9,0.6,1.3L6.7,7.5
	C6.2,7,5.9,6.3,5.8,5.6s0.1-1.4,0.5-2l0.1-0.1c0.5-0.6,1.2-1,1.9-1.2C9.1,2.2,9.9,2.4,10.6,2.9z M13.8,9.6l0.5-0.7
	c0.5,0.5,0.8,1.2,0.9,1.9c0.1,0.7-0.1,1.4-0.6,2l-0.1,0.1c-0.5,0.6-1.2,1-1.9,1.2c-0.8,0.1-1.6-0.1-2.2-0.5L8.3,12
	c-0.6-0.5-1-1.2-1.2-1.9C7,9.2,7.2,8.5,7.7,7.8l0.1-0.1c0.5-0.6,1.2-1,1.9-1.2c0.8-0.1,1.6,0.1,2.2,0.5l0.3,0.2L11.7,8l-0.3-0.2
	c-0.4-0.3-1-0.5-1.5-0.4s-1,0.4-1.4,0.8L8.4,8.3C8,8.8,7.9,9.3,8,9.9c0.1,0.5,0.4,1,0.8,1.4l2.1,1.6c0.4,0.3,1,0.5,1.5,0.4
	s1-0.4,1.4-0.8l0.1-0.1c0.3-0.4,0.4-0.9,0.4-1.4C14.3,10.4,14.1,9.9,13.8,9.6z"/>
<path class="st0" d="M0.5,2.3v12.5l5-6.2L0.5,2.3z M4.5,8.5L1,12.8V4.2L4.5,8.5z"/>
</svg>
